%TF.GenerationSoftware,KiCad,Pcbnew,9.0.4*%
%TF.CreationDate,2025-11-14T16:56:38-06:00*%
%TF.ProjectId,Theremin,54686572-656d-4696-9e2e-6b696361645f,rev?*%
%TF.SameCoordinates,Original*%
%TF.FileFunction,Soldermask,Top*%
%TF.FilePolarity,Negative*%
%FSLAX46Y46*%
G04 Gerber Fmt 4.6, Leading zero omitted, Abs format (unit mm)*
G04 Created by KiCad (PCBNEW 9.0.4) date 2025-11-14 16:56:38*
%MOMM*%
%LPD*%
G01*
G04 APERTURE LIST*
G04 Aperture macros list*
%AMRoundRect*
0 Rectangle with rounded corners*
0 $1 Rounding radius*
0 $2 $3 $4 $5 $6 $7 $8 $9 X,Y pos of 4 corners*
0 Add a 4 corners polygon primitive as box body*
4,1,4,$2,$3,$4,$5,$6,$7,$8,$9,$2,$3,0*
0 Add four circle primitives for the rounded corners*
1,1,$1+$1,$2,$3*
1,1,$1+$1,$4,$5*
1,1,$1+$1,$6,$7*
1,1,$1+$1,$8,$9*
0 Add four rect primitives between the rounded corners*
20,1,$1+$1,$2,$3,$4,$5,0*
20,1,$1+$1,$4,$5,$6,$7,0*
20,1,$1+$1,$6,$7,$8,$9,0*
20,1,$1+$1,$8,$9,$2,$3,0*%
G04 Aperture macros list end*
%ADD10C,1.320800*%
%ADD11R,1.320800X1.320800*%
%ADD12RoundRect,0.102000X0.565000X-0.565000X0.565000X0.565000X-0.565000X0.565000X-0.565000X-0.565000X0*%
%ADD13C,1.334000*%
%ADD14C,1.778000*%
%ADD15C,1.612000*%
%ADD16RoundRect,0.102000X-0.802500X-0.802500X0.802500X-0.802500X0.802500X0.802500X-0.802500X0.802500X0*%
%ADD17C,1.809000*%
%ADD18C,1.270000*%
%ADD19RoundRect,4.500000X-10.500000X-10.500000X10.500000X-10.500000X10.500000X10.500000X-10.500000X10.500000X0*%
G04 APERTURE END LIST*
D10*
%TO.C,Rpd1*%
X132499995Y-99443600D03*
D11*
X127500005Y-99443600D03*
%TD*%
D10*
%TO.C,R3*%
X127500015Y-88000000D03*
D11*
X132500005Y-88000000D03*
%TD*%
D12*
%TO.C,U1*%
X104190000Y-99470000D03*
D13*
X106730000Y-99470000D03*
X109270000Y-99470000D03*
X111810000Y-99470000D03*
X111810000Y-91530000D03*
X109270000Y-91530000D03*
X106730000Y-91530000D03*
X104190000Y-91530000D03*
%TD*%
D11*
%TO.C,Rosc1*%
X132500000Y-95500000D03*
D10*
X127500010Y-95500000D03*
%TD*%
D11*
%TO.C,RLS1*%
X135500000Y-99500000D03*
D10*
X140499990Y-99500000D03*
%TD*%
D11*
%TO.C,Rgate1*%
X127500005Y-91500000D03*
D10*
X132499995Y-91500000D03*
%TD*%
D11*
%TO.C,Rg1*%
X119000010Y-95500000D03*
D10*
X124000000Y-95500000D03*
%TD*%
D11*
%TO.C,Rf1*%
X119000010Y-99500000D03*
D10*
X124000000Y-99500000D03*
%TD*%
D11*
%TO.C,R4*%
X119000005Y-91500000D03*
D10*
X123999995Y-91500000D03*
%TD*%
D14*
%TO.C,Q1*%
X142220001Y-69000000D03*
X144860001Y-69000000D03*
X147500000Y-69000000D03*
%TD*%
D15*
%TO.C,LS1*%
X141750000Y-58000000D03*
X148250000Y-58000000D03*
%TD*%
D16*
%TO.C,J1*%
X104500000Y-87500000D03*
D17*
X107040000Y-87500000D03*
%TD*%
D18*
%TO.C,Cref1*%
X146000000Y-86500000D03*
X148500000Y-86500000D03*
%TD*%
%TO.C,Cdec1*%
X136500000Y-86000000D03*
X139000000Y-86000000D03*
%TD*%
%TO.C,Cbulk1*%
X148500000Y-77000000D03*
X146000000Y-77000000D03*
%TD*%
%TO.C,Cbase1*%
X137000000Y-77000000D03*
X139500000Y-77000000D03*
%TD*%
D19*
%TO.C,TOUCH_PAD1*%
X117500000Y-66500000D03*
%TD*%
M02*
