%TF.GenerationSoftware,KiCad,Pcbnew,9.0.4*%
%TF.CreationDate,2025-11-14T16:56:38-06:00*%
%TF.ProjectId,Theremin,54686572-656d-4696-9e2e-6b696361645f,rev?*%
%TF.SameCoordinates,Original*%
%TF.FileFunction,Legend,Top*%
%TF.FilePolarity,Positive*%
%FSLAX46Y46*%
G04 Gerber Fmt 4.6, Leading zero omitted, Abs format (unit mm)*
G04 Created by KiCad (PCBNEW 9.0.4) date 2025-11-14 16:56:38*
%MOMM*%
%LPD*%
G01*
G04 APERTURE LIST*
%ADD10C,0.150000*%
%ADD11C,0.100000*%
%ADD12C,0.152400*%
%ADD13C,0.200000*%
%ADD14C,0.127000*%
G04 APERTURE END LIST*
D10*
X128928571Y-99898419D02*
X128595238Y-99422228D01*
X128357143Y-99898419D02*
X128357143Y-98898419D01*
X128357143Y-98898419D02*
X128738095Y-98898419D01*
X128738095Y-98898419D02*
X128833333Y-98946038D01*
X128833333Y-98946038D02*
X128880952Y-98993657D01*
X128880952Y-98993657D02*
X128928571Y-99088895D01*
X128928571Y-99088895D02*
X128928571Y-99231752D01*
X128928571Y-99231752D02*
X128880952Y-99326990D01*
X128880952Y-99326990D02*
X128833333Y-99374609D01*
X128833333Y-99374609D02*
X128738095Y-99422228D01*
X128738095Y-99422228D02*
X128357143Y-99422228D01*
X129357143Y-99231752D02*
X129357143Y-100231752D01*
X129357143Y-99279371D02*
X129452381Y-99231752D01*
X129452381Y-99231752D02*
X129642857Y-99231752D01*
X129642857Y-99231752D02*
X129738095Y-99279371D01*
X129738095Y-99279371D02*
X129785714Y-99326990D01*
X129785714Y-99326990D02*
X129833333Y-99422228D01*
X129833333Y-99422228D02*
X129833333Y-99707942D01*
X129833333Y-99707942D02*
X129785714Y-99803180D01*
X129785714Y-99803180D02*
X129738095Y-99850800D01*
X129738095Y-99850800D02*
X129642857Y-99898419D01*
X129642857Y-99898419D02*
X129452381Y-99898419D01*
X129452381Y-99898419D02*
X129357143Y-99850800D01*
X130690476Y-99898419D02*
X130690476Y-98898419D01*
X130690476Y-99850800D02*
X130595238Y-99898419D01*
X130595238Y-99898419D02*
X130404762Y-99898419D01*
X130404762Y-99898419D02*
X130309524Y-99850800D01*
X130309524Y-99850800D02*
X130261905Y-99803180D01*
X130261905Y-99803180D02*
X130214286Y-99707942D01*
X130214286Y-99707942D02*
X130214286Y-99422228D01*
X130214286Y-99422228D02*
X130261905Y-99326990D01*
X130261905Y-99326990D02*
X130309524Y-99279371D01*
X130309524Y-99279371D02*
X130404762Y-99231752D01*
X130404762Y-99231752D02*
X130595238Y-99231752D01*
X130595238Y-99231752D02*
X130690476Y-99279371D01*
X131690476Y-99898419D02*
X131119048Y-99898419D01*
X131404762Y-99898419D02*
X131404762Y-98898419D01*
X131404762Y-98898419D02*
X131309524Y-99041276D01*
X131309524Y-99041276D02*
X131214286Y-99136514D01*
X131214286Y-99136514D02*
X131119048Y-99184133D01*
X129833343Y-88454819D02*
X129500010Y-87978628D01*
X129261915Y-88454819D02*
X129261915Y-87454819D01*
X129261915Y-87454819D02*
X129642867Y-87454819D01*
X129642867Y-87454819D02*
X129738105Y-87502438D01*
X129738105Y-87502438D02*
X129785724Y-87550057D01*
X129785724Y-87550057D02*
X129833343Y-87645295D01*
X129833343Y-87645295D02*
X129833343Y-87788152D01*
X129833343Y-87788152D02*
X129785724Y-87883390D01*
X129785724Y-87883390D02*
X129738105Y-87931009D01*
X129738105Y-87931009D02*
X129642867Y-87978628D01*
X129642867Y-87978628D02*
X129261915Y-87978628D01*
X130166677Y-87454819D02*
X130785724Y-87454819D01*
X130785724Y-87454819D02*
X130452391Y-87835771D01*
X130452391Y-87835771D02*
X130595248Y-87835771D01*
X130595248Y-87835771D02*
X130690486Y-87883390D01*
X130690486Y-87883390D02*
X130738105Y-87931009D01*
X130738105Y-87931009D02*
X130785724Y-88026247D01*
X130785724Y-88026247D02*
X130785724Y-88264342D01*
X130785724Y-88264342D02*
X130738105Y-88359580D01*
X130738105Y-88359580D02*
X130690486Y-88407200D01*
X130690486Y-88407200D02*
X130595248Y-88454819D01*
X130595248Y-88454819D02*
X130309534Y-88454819D01*
X130309534Y-88454819D02*
X130214296Y-88407200D01*
X130214296Y-88407200D02*
X130166677Y-88359580D01*
X101847819Y-96826904D02*
X102657342Y-96826904D01*
X102657342Y-96826904D02*
X102752580Y-96779285D01*
X102752580Y-96779285D02*
X102800200Y-96731666D01*
X102800200Y-96731666D02*
X102847819Y-96636428D01*
X102847819Y-96636428D02*
X102847819Y-96445952D01*
X102847819Y-96445952D02*
X102800200Y-96350714D01*
X102800200Y-96350714D02*
X102752580Y-96303095D01*
X102752580Y-96303095D02*
X102657342Y-96255476D01*
X102657342Y-96255476D02*
X101847819Y-96255476D01*
X102847819Y-95255476D02*
X102847819Y-95826904D01*
X102847819Y-95541190D02*
X101847819Y-95541190D01*
X101847819Y-95541190D02*
X101990676Y-95636428D01*
X101990676Y-95636428D02*
X102085914Y-95731666D01*
X102085914Y-95731666D02*
X102133533Y-95826904D01*
X128547623Y-95954819D02*
X128214290Y-95478628D01*
X127976195Y-95954819D02*
X127976195Y-94954819D01*
X127976195Y-94954819D02*
X128357147Y-94954819D01*
X128357147Y-94954819D02*
X128452385Y-95002438D01*
X128452385Y-95002438D02*
X128500004Y-95050057D01*
X128500004Y-95050057D02*
X128547623Y-95145295D01*
X128547623Y-95145295D02*
X128547623Y-95288152D01*
X128547623Y-95288152D02*
X128500004Y-95383390D01*
X128500004Y-95383390D02*
X128452385Y-95431009D01*
X128452385Y-95431009D02*
X128357147Y-95478628D01*
X128357147Y-95478628D02*
X127976195Y-95478628D01*
X129119052Y-95954819D02*
X129023814Y-95907200D01*
X129023814Y-95907200D02*
X128976195Y-95859580D01*
X128976195Y-95859580D02*
X128928576Y-95764342D01*
X128928576Y-95764342D02*
X128928576Y-95478628D01*
X128928576Y-95478628D02*
X128976195Y-95383390D01*
X128976195Y-95383390D02*
X129023814Y-95335771D01*
X129023814Y-95335771D02*
X129119052Y-95288152D01*
X129119052Y-95288152D02*
X129261909Y-95288152D01*
X129261909Y-95288152D02*
X129357147Y-95335771D01*
X129357147Y-95335771D02*
X129404766Y-95383390D01*
X129404766Y-95383390D02*
X129452385Y-95478628D01*
X129452385Y-95478628D02*
X129452385Y-95764342D01*
X129452385Y-95764342D02*
X129404766Y-95859580D01*
X129404766Y-95859580D02*
X129357147Y-95907200D01*
X129357147Y-95907200D02*
X129261909Y-95954819D01*
X129261909Y-95954819D02*
X129119052Y-95954819D01*
X129833338Y-95907200D02*
X129928576Y-95954819D01*
X129928576Y-95954819D02*
X130119052Y-95954819D01*
X130119052Y-95954819D02*
X130214290Y-95907200D01*
X130214290Y-95907200D02*
X130261909Y-95811961D01*
X130261909Y-95811961D02*
X130261909Y-95764342D01*
X130261909Y-95764342D02*
X130214290Y-95669104D01*
X130214290Y-95669104D02*
X130119052Y-95621485D01*
X130119052Y-95621485D02*
X129976195Y-95621485D01*
X129976195Y-95621485D02*
X129880957Y-95573866D01*
X129880957Y-95573866D02*
X129833338Y-95478628D01*
X129833338Y-95478628D02*
X129833338Y-95431009D01*
X129833338Y-95431009D02*
X129880957Y-95335771D01*
X129880957Y-95335771D02*
X129976195Y-95288152D01*
X129976195Y-95288152D02*
X130119052Y-95288152D01*
X130119052Y-95288152D02*
X130214290Y-95335771D01*
X131119052Y-95907200D02*
X131023814Y-95954819D01*
X131023814Y-95954819D02*
X130833338Y-95954819D01*
X130833338Y-95954819D02*
X130738100Y-95907200D01*
X130738100Y-95907200D02*
X130690481Y-95859580D01*
X130690481Y-95859580D02*
X130642862Y-95764342D01*
X130642862Y-95764342D02*
X130642862Y-95478628D01*
X130642862Y-95478628D02*
X130690481Y-95383390D01*
X130690481Y-95383390D02*
X130738100Y-95335771D01*
X130738100Y-95335771D02*
X130833338Y-95288152D01*
X130833338Y-95288152D02*
X131023814Y-95288152D01*
X131023814Y-95288152D02*
X131119052Y-95335771D01*
X132071433Y-95954819D02*
X131500005Y-95954819D01*
X131785719Y-95954819D02*
X131785719Y-94954819D01*
X131785719Y-94954819D02*
X131690481Y-95097676D01*
X131690481Y-95097676D02*
X131595243Y-95192914D01*
X131595243Y-95192914D02*
X131500005Y-95240533D01*
X136952375Y-99954819D02*
X136619042Y-99478628D01*
X136380947Y-99954819D02*
X136380947Y-98954819D01*
X136380947Y-98954819D02*
X136761899Y-98954819D01*
X136761899Y-98954819D02*
X136857137Y-99002438D01*
X136857137Y-99002438D02*
X136904756Y-99050057D01*
X136904756Y-99050057D02*
X136952375Y-99145295D01*
X136952375Y-99145295D02*
X136952375Y-99288152D01*
X136952375Y-99288152D02*
X136904756Y-99383390D01*
X136904756Y-99383390D02*
X136857137Y-99431009D01*
X136857137Y-99431009D02*
X136761899Y-99478628D01*
X136761899Y-99478628D02*
X136380947Y-99478628D01*
X137857137Y-99954819D02*
X137380947Y-99954819D01*
X137380947Y-99954819D02*
X137380947Y-98954819D01*
X138142852Y-99907200D02*
X138285709Y-99954819D01*
X138285709Y-99954819D02*
X138523804Y-99954819D01*
X138523804Y-99954819D02*
X138619042Y-99907200D01*
X138619042Y-99907200D02*
X138666661Y-99859580D01*
X138666661Y-99859580D02*
X138714280Y-99764342D01*
X138714280Y-99764342D02*
X138714280Y-99669104D01*
X138714280Y-99669104D02*
X138666661Y-99573866D01*
X138666661Y-99573866D02*
X138619042Y-99526247D01*
X138619042Y-99526247D02*
X138523804Y-99478628D01*
X138523804Y-99478628D02*
X138333328Y-99431009D01*
X138333328Y-99431009D02*
X138238090Y-99383390D01*
X138238090Y-99383390D02*
X138190471Y-99335771D01*
X138190471Y-99335771D02*
X138142852Y-99240533D01*
X138142852Y-99240533D02*
X138142852Y-99145295D01*
X138142852Y-99145295D02*
X138190471Y-99050057D01*
X138190471Y-99050057D02*
X138238090Y-99002438D01*
X138238090Y-99002438D02*
X138333328Y-98954819D01*
X138333328Y-98954819D02*
X138571423Y-98954819D01*
X138571423Y-98954819D02*
X138714280Y-99002438D01*
X139666661Y-99954819D02*
X139095233Y-99954819D01*
X139380947Y-99954819D02*
X139380947Y-98954819D01*
X139380947Y-98954819D02*
X139285709Y-99097676D01*
X139285709Y-99097676D02*
X139190471Y-99192914D01*
X139190471Y-99192914D02*
X139095233Y-99240533D01*
X128214285Y-91954819D02*
X127880952Y-91478628D01*
X127642857Y-91954819D02*
X127642857Y-90954819D01*
X127642857Y-90954819D02*
X128023809Y-90954819D01*
X128023809Y-90954819D02*
X128119047Y-91002438D01*
X128119047Y-91002438D02*
X128166666Y-91050057D01*
X128166666Y-91050057D02*
X128214285Y-91145295D01*
X128214285Y-91145295D02*
X128214285Y-91288152D01*
X128214285Y-91288152D02*
X128166666Y-91383390D01*
X128166666Y-91383390D02*
X128119047Y-91431009D01*
X128119047Y-91431009D02*
X128023809Y-91478628D01*
X128023809Y-91478628D02*
X127642857Y-91478628D01*
X129071428Y-91288152D02*
X129071428Y-92097676D01*
X129071428Y-92097676D02*
X129023809Y-92192914D01*
X129023809Y-92192914D02*
X128976190Y-92240533D01*
X128976190Y-92240533D02*
X128880952Y-92288152D01*
X128880952Y-92288152D02*
X128738095Y-92288152D01*
X128738095Y-92288152D02*
X128642857Y-92240533D01*
X129071428Y-91907200D02*
X128976190Y-91954819D01*
X128976190Y-91954819D02*
X128785714Y-91954819D01*
X128785714Y-91954819D02*
X128690476Y-91907200D01*
X128690476Y-91907200D02*
X128642857Y-91859580D01*
X128642857Y-91859580D02*
X128595238Y-91764342D01*
X128595238Y-91764342D02*
X128595238Y-91478628D01*
X128595238Y-91478628D02*
X128642857Y-91383390D01*
X128642857Y-91383390D02*
X128690476Y-91335771D01*
X128690476Y-91335771D02*
X128785714Y-91288152D01*
X128785714Y-91288152D02*
X128976190Y-91288152D01*
X128976190Y-91288152D02*
X129071428Y-91335771D01*
X129976190Y-91954819D02*
X129976190Y-91431009D01*
X129976190Y-91431009D02*
X129928571Y-91335771D01*
X129928571Y-91335771D02*
X129833333Y-91288152D01*
X129833333Y-91288152D02*
X129642857Y-91288152D01*
X129642857Y-91288152D02*
X129547619Y-91335771D01*
X129976190Y-91907200D02*
X129880952Y-91954819D01*
X129880952Y-91954819D02*
X129642857Y-91954819D01*
X129642857Y-91954819D02*
X129547619Y-91907200D01*
X129547619Y-91907200D02*
X129500000Y-91811961D01*
X129500000Y-91811961D02*
X129500000Y-91716723D01*
X129500000Y-91716723D02*
X129547619Y-91621485D01*
X129547619Y-91621485D02*
X129642857Y-91573866D01*
X129642857Y-91573866D02*
X129880952Y-91573866D01*
X129880952Y-91573866D02*
X129976190Y-91526247D01*
X130309524Y-91288152D02*
X130690476Y-91288152D01*
X130452381Y-90954819D02*
X130452381Y-91811961D01*
X130452381Y-91811961D02*
X130500000Y-91907200D01*
X130500000Y-91907200D02*
X130595238Y-91954819D01*
X130595238Y-91954819D02*
X130690476Y-91954819D01*
X131404762Y-91907200D02*
X131309524Y-91954819D01*
X131309524Y-91954819D02*
X131119048Y-91954819D01*
X131119048Y-91954819D02*
X131023810Y-91907200D01*
X131023810Y-91907200D02*
X130976191Y-91811961D01*
X130976191Y-91811961D02*
X130976191Y-91431009D01*
X130976191Y-91431009D02*
X131023810Y-91335771D01*
X131023810Y-91335771D02*
X131119048Y-91288152D01*
X131119048Y-91288152D02*
X131309524Y-91288152D01*
X131309524Y-91288152D02*
X131404762Y-91335771D01*
X131404762Y-91335771D02*
X131452381Y-91431009D01*
X131452381Y-91431009D02*
X131452381Y-91526247D01*
X131452381Y-91526247D02*
X130976191Y-91621485D01*
X132404762Y-91954819D02*
X131833334Y-91954819D01*
X132119048Y-91954819D02*
X132119048Y-90954819D01*
X132119048Y-90954819D02*
X132023810Y-91097676D01*
X132023810Y-91097676D02*
X131928572Y-91192914D01*
X131928572Y-91192914D02*
X131833334Y-91240533D01*
X120880957Y-95954819D02*
X120547624Y-95478628D01*
X120309529Y-95954819D02*
X120309529Y-94954819D01*
X120309529Y-94954819D02*
X120690481Y-94954819D01*
X120690481Y-94954819D02*
X120785719Y-95002438D01*
X120785719Y-95002438D02*
X120833338Y-95050057D01*
X120833338Y-95050057D02*
X120880957Y-95145295D01*
X120880957Y-95145295D02*
X120880957Y-95288152D01*
X120880957Y-95288152D02*
X120833338Y-95383390D01*
X120833338Y-95383390D02*
X120785719Y-95431009D01*
X120785719Y-95431009D02*
X120690481Y-95478628D01*
X120690481Y-95478628D02*
X120309529Y-95478628D01*
X121738100Y-95288152D02*
X121738100Y-96097676D01*
X121738100Y-96097676D02*
X121690481Y-96192914D01*
X121690481Y-96192914D02*
X121642862Y-96240533D01*
X121642862Y-96240533D02*
X121547624Y-96288152D01*
X121547624Y-96288152D02*
X121404767Y-96288152D01*
X121404767Y-96288152D02*
X121309529Y-96240533D01*
X121738100Y-95907200D02*
X121642862Y-95954819D01*
X121642862Y-95954819D02*
X121452386Y-95954819D01*
X121452386Y-95954819D02*
X121357148Y-95907200D01*
X121357148Y-95907200D02*
X121309529Y-95859580D01*
X121309529Y-95859580D02*
X121261910Y-95764342D01*
X121261910Y-95764342D02*
X121261910Y-95478628D01*
X121261910Y-95478628D02*
X121309529Y-95383390D01*
X121309529Y-95383390D02*
X121357148Y-95335771D01*
X121357148Y-95335771D02*
X121452386Y-95288152D01*
X121452386Y-95288152D02*
X121642862Y-95288152D01*
X121642862Y-95288152D02*
X121738100Y-95335771D01*
X122738100Y-95954819D02*
X122166672Y-95954819D01*
X122452386Y-95954819D02*
X122452386Y-94954819D01*
X122452386Y-94954819D02*
X122357148Y-95097676D01*
X122357148Y-95097676D02*
X122261910Y-95192914D01*
X122261910Y-95192914D02*
X122166672Y-95240533D01*
X121047623Y-99954819D02*
X120714290Y-99478628D01*
X120476195Y-99954819D02*
X120476195Y-98954819D01*
X120476195Y-98954819D02*
X120857147Y-98954819D01*
X120857147Y-98954819D02*
X120952385Y-99002438D01*
X120952385Y-99002438D02*
X121000004Y-99050057D01*
X121000004Y-99050057D02*
X121047623Y-99145295D01*
X121047623Y-99145295D02*
X121047623Y-99288152D01*
X121047623Y-99288152D02*
X121000004Y-99383390D01*
X121000004Y-99383390D02*
X120952385Y-99431009D01*
X120952385Y-99431009D02*
X120857147Y-99478628D01*
X120857147Y-99478628D02*
X120476195Y-99478628D01*
X121333338Y-99288152D02*
X121714290Y-99288152D01*
X121476195Y-99954819D02*
X121476195Y-99097676D01*
X121476195Y-99097676D02*
X121523814Y-99002438D01*
X121523814Y-99002438D02*
X121619052Y-98954819D01*
X121619052Y-98954819D02*
X121714290Y-98954819D01*
X122571433Y-99954819D02*
X122000005Y-99954819D01*
X122285719Y-99954819D02*
X122285719Y-98954819D01*
X122285719Y-98954819D02*
X122190481Y-99097676D01*
X122190481Y-99097676D02*
X122095243Y-99192914D01*
X122095243Y-99192914D02*
X122000005Y-99240533D01*
X121333333Y-91954819D02*
X121000000Y-91478628D01*
X120761905Y-91954819D02*
X120761905Y-90954819D01*
X120761905Y-90954819D02*
X121142857Y-90954819D01*
X121142857Y-90954819D02*
X121238095Y-91002438D01*
X121238095Y-91002438D02*
X121285714Y-91050057D01*
X121285714Y-91050057D02*
X121333333Y-91145295D01*
X121333333Y-91145295D02*
X121333333Y-91288152D01*
X121333333Y-91288152D02*
X121285714Y-91383390D01*
X121285714Y-91383390D02*
X121238095Y-91431009D01*
X121238095Y-91431009D02*
X121142857Y-91478628D01*
X121142857Y-91478628D02*
X120761905Y-91478628D01*
X122190476Y-91288152D02*
X122190476Y-91954819D01*
X121952381Y-90907200D02*
X121714286Y-91621485D01*
X121714286Y-91621485D02*
X122333333Y-91621485D01*
X144764762Y-69550057D02*
X144669524Y-69502438D01*
X144669524Y-69502438D02*
X144574286Y-69407200D01*
X144574286Y-69407200D02*
X144431429Y-69264342D01*
X144431429Y-69264342D02*
X144336191Y-69216723D01*
X144336191Y-69216723D02*
X144240953Y-69216723D01*
X144288572Y-69454819D02*
X144193334Y-69407200D01*
X144193334Y-69407200D02*
X144098096Y-69311961D01*
X144098096Y-69311961D02*
X144050477Y-69121485D01*
X144050477Y-69121485D02*
X144050477Y-68788152D01*
X144050477Y-68788152D02*
X144098096Y-68597676D01*
X144098096Y-68597676D02*
X144193334Y-68502438D01*
X144193334Y-68502438D02*
X144288572Y-68454819D01*
X144288572Y-68454819D02*
X144479048Y-68454819D01*
X144479048Y-68454819D02*
X144574286Y-68502438D01*
X144574286Y-68502438D02*
X144669524Y-68597676D01*
X144669524Y-68597676D02*
X144717143Y-68788152D01*
X144717143Y-68788152D02*
X144717143Y-69121485D01*
X144717143Y-69121485D02*
X144669524Y-69311961D01*
X144669524Y-69311961D02*
X144574286Y-69407200D01*
X144574286Y-69407200D02*
X144479048Y-69454819D01*
X144479048Y-69454819D02*
X144288572Y-69454819D01*
X145669524Y-69454819D02*
X145098096Y-69454819D01*
X145383810Y-69454819D02*
X145383810Y-68454819D01*
X145383810Y-68454819D02*
X145288572Y-68597676D01*
X145288572Y-68597676D02*
X145193334Y-68692914D01*
X145193334Y-68692914D02*
X145098096Y-68740533D01*
X137819819Y-58967857D02*
X137819819Y-59444047D01*
X137819819Y-59444047D02*
X136819819Y-59444047D01*
X137772200Y-58682142D02*
X137819819Y-58539285D01*
X137819819Y-58539285D02*
X137819819Y-58301190D01*
X137819819Y-58301190D02*
X137772200Y-58205952D01*
X137772200Y-58205952D02*
X137724580Y-58158333D01*
X137724580Y-58158333D02*
X137629342Y-58110714D01*
X137629342Y-58110714D02*
X137534104Y-58110714D01*
X137534104Y-58110714D02*
X137438866Y-58158333D01*
X137438866Y-58158333D02*
X137391247Y-58205952D01*
X137391247Y-58205952D02*
X137343628Y-58301190D01*
X137343628Y-58301190D02*
X137296009Y-58491666D01*
X137296009Y-58491666D02*
X137248390Y-58586904D01*
X137248390Y-58586904D02*
X137200771Y-58634523D01*
X137200771Y-58634523D02*
X137105533Y-58682142D01*
X137105533Y-58682142D02*
X137010295Y-58682142D01*
X137010295Y-58682142D02*
X136915057Y-58634523D01*
X136915057Y-58634523D02*
X136867438Y-58586904D01*
X136867438Y-58586904D02*
X136819819Y-58491666D01*
X136819819Y-58491666D02*
X136819819Y-58253571D01*
X136819819Y-58253571D02*
X136867438Y-58110714D01*
X137819819Y-57158333D02*
X137819819Y-57729761D01*
X137819819Y-57444047D02*
X136819819Y-57444047D01*
X136819819Y-57444047D02*
X136962676Y-57539285D01*
X136962676Y-57539285D02*
X137057914Y-57634523D01*
X137057914Y-57634523D02*
X137105533Y-57729761D01*
X105861666Y-84569819D02*
X105861666Y-85284104D01*
X105861666Y-85284104D02*
X105814047Y-85426961D01*
X105814047Y-85426961D02*
X105718809Y-85522200D01*
X105718809Y-85522200D02*
X105575952Y-85569819D01*
X105575952Y-85569819D02*
X105480714Y-85569819D01*
X106861666Y-85569819D02*
X106290238Y-85569819D01*
X106575952Y-85569819D02*
X106575952Y-84569819D01*
X106575952Y-84569819D02*
X106480714Y-84712676D01*
X106480714Y-84712676D02*
X106385476Y-84807914D01*
X106385476Y-84807914D02*
X106290238Y-84855533D01*
X146059523Y-86859580D02*
X146011904Y-86907200D01*
X146011904Y-86907200D02*
X145869047Y-86954819D01*
X145869047Y-86954819D02*
X145773809Y-86954819D01*
X145773809Y-86954819D02*
X145630952Y-86907200D01*
X145630952Y-86907200D02*
X145535714Y-86811961D01*
X145535714Y-86811961D02*
X145488095Y-86716723D01*
X145488095Y-86716723D02*
X145440476Y-86526247D01*
X145440476Y-86526247D02*
X145440476Y-86383390D01*
X145440476Y-86383390D02*
X145488095Y-86192914D01*
X145488095Y-86192914D02*
X145535714Y-86097676D01*
X145535714Y-86097676D02*
X145630952Y-86002438D01*
X145630952Y-86002438D02*
X145773809Y-85954819D01*
X145773809Y-85954819D02*
X145869047Y-85954819D01*
X145869047Y-85954819D02*
X146011904Y-86002438D01*
X146011904Y-86002438D02*
X146059523Y-86050057D01*
X146488095Y-86954819D02*
X146488095Y-86288152D01*
X146488095Y-86478628D02*
X146535714Y-86383390D01*
X146535714Y-86383390D02*
X146583333Y-86335771D01*
X146583333Y-86335771D02*
X146678571Y-86288152D01*
X146678571Y-86288152D02*
X146773809Y-86288152D01*
X147488095Y-86907200D02*
X147392857Y-86954819D01*
X147392857Y-86954819D02*
X147202381Y-86954819D01*
X147202381Y-86954819D02*
X147107143Y-86907200D01*
X147107143Y-86907200D02*
X147059524Y-86811961D01*
X147059524Y-86811961D02*
X147059524Y-86431009D01*
X147059524Y-86431009D02*
X147107143Y-86335771D01*
X147107143Y-86335771D02*
X147202381Y-86288152D01*
X147202381Y-86288152D02*
X147392857Y-86288152D01*
X147392857Y-86288152D02*
X147488095Y-86335771D01*
X147488095Y-86335771D02*
X147535714Y-86431009D01*
X147535714Y-86431009D02*
X147535714Y-86526247D01*
X147535714Y-86526247D02*
X147059524Y-86621485D01*
X147821429Y-86288152D02*
X148202381Y-86288152D01*
X147964286Y-86954819D02*
X147964286Y-86097676D01*
X147964286Y-86097676D02*
X148011905Y-86002438D01*
X148011905Y-86002438D02*
X148107143Y-85954819D01*
X148107143Y-85954819D02*
X148202381Y-85954819D01*
X149059524Y-86954819D02*
X148488096Y-86954819D01*
X148773810Y-86954819D02*
X148773810Y-85954819D01*
X148773810Y-85954819D02*
X148678572Y-86097676D01*
X148678572Y-86097676D02*
X148583334Y-86192914D01*
X148583334Y-86192914D02*
X148488096Y-86240533D01*
X136273809Y-86359580D02*
X136226190Y-86407200D01*
X136226190Y-86407200D02*
X136083333Y-86454819D01*
X136083333Y-86454819D02*
X135988095Y-86454819D01*
X135988095Y-86454819D02*
X135845238Y-86407200D01*
X135845238Y-86407200D02*
X135750000Y-86311961D01*
X135750000Y-86311961D02*
X135702381Y-86216723D01*
X135702381Y-86216723D02*
X135654762Y-86026247D01*
X135654762Y-86026247D02*
X135654762Y-85883390D01*
X135654762Y-85883390D02*
X135702381Y-85692914D01*
X135702381Y-85692914D02*
X135750000Y-85597676D01*
X135750000Y-85597676D02*
X135845238Y-85502438D01*
X135845238Y-85502438D02*
X135988095Y-85454819D01*
X135988095Y-85454819D02*
X136083333Y-85454819D01*
X136083333Y-85454819D02*
X136226190Y-85502438D01*
X136226190Y-85502438D02*
X136273809Y-85550057D01*
X137130952Y-86454819D02*
X137130952Y-85454819D01*
X137130952Y-86407200D02*
X137035714Y-86454819D01*
X137035714Y-86454819D02*
X136845238Y-86454819D01*
X136845238Y-86454819D02*
X136750000Y-86407200D01*
X136750000Y-86407200D02*
X136702381Y-86359580D01*
X136702381Y-86359580D02*
X136654762Y-86264342D01*
X136654762Y-86264342D02*
X136654762Y-85978628D01*
X136654762Y-85978628D02*
X136702381Y-85883390D01*
X136702381Y-85883390D02*
X136750000Y-85835771D01*
X136750000Y-85835771D02*
X136845238Y-85788152D01*
X136845238Y-85788152D02*
X137035714Y-85788152D01*
X137035714Y-85788152D02*
X137130952Y-85835771D01*
X137988095Y-86407200D02*
X137892857Y-86454819D01*
X137892857Y-86454819D02*
X137702381Y-86454819D01*
X137702381Y-86454819D02*
X137607143Y-86407200D01*
X137607143Y-86407200D02*
X137559524Y-86311961D01*
X137559524Y-86311961D02*
X137559524Y-85931009D01*
X137559524Y-85931009D02*
X137607143Y-85835771D01*
X137607143Y-85835771D02*
X137702381Y-85788152D01*
X137702381Y-85788152D02*
X137892857Y-85788152D01*
X137892857Y-85788152D02*
X137988095Y-85835771D01*
X137988095Y-85835771D02*
X138035714Y-85931009D01*
X138035714Y-85931009D02*
X138035714Y-86026247D01*
X138035714Y-86026247D02*
X137559524Y-86121485D01*
X138892857Y-86407200D02*
X138797619Y-86454819D01*
X138797619Y-86454819D02*
X138607143Y-86454819D01*
X138607143Y-86454819D02*
X138511905Y-86407200D01*
X138511905Y-86407200D02*
X138464286Y-86359580D01*
X138464286Y-86359580D02*
X138416667Y-86264342D01*
X138416667Y-86264342D02*
X138416667Y-85978628D01*
X138416667Y-85978628D02*
X138464286Y-85883390D01*
X138464286Y-85883390D02*
X138511905Y-85835771D01*
X138511905Y-85835771D02*
X138607143Y-85788152D01*
X138607143Y-85788152D02*
X138797619Y-85788152D01*
X138797619Y-85788152D02*
X138892857Y-85835771D01*
X139845238Y-86454819D02*
X139273810Y-86454819D01*
X139559524Y-86454819D02*
X139559524Y-85454819D01*
X139559524Y-85454819D02*
X139464286Y-85597676D01*
X139464286Y-85597676D02*
X139369048Y-85692914D01*
X139369048Y-85692914D02*
X139273810Y-85740533D01*
X145511904Y-77359580D02*
X145464285Y-77407200D01*
X145464285Y-77407200D02*
X145321428Y-77454819D01*
X145321428Y-77454819D02*
X145226190Y-77454819D01*
X145226190Y-77454819D02*
X145083333Y-77407200D01*
X145083333Y-77407200D02*
X144988095Y-77311961D01*
X144988095Y-77311961D02*
X144940476Y-77216723D01*
X144940476Y-77216723D02*
X144892857Y-77026247D01*
X144892857Y-77026247D02*
X144892857Y-76883390D01*
X144892857Y-76883390D02*
X144940476Y-76692914D01*
X144940476Y-76692914D02*
X144988095Y-76597676D01*
X144988095Y-76597676D02*
X145083333Y-76502438D01*
X145083333Y-76502438D02*
X145226190Y-76454819D01*
X145226190Y-76454819D02*
X145321428Y-76454819D01*
X145321428Y-76454819D02*
X145464285Y-76502438D01*
X145464285Y-76502438D02*
X145511904Y-76550057D01*
X145940476Y-77454819D02*
X145940476Y-76454819D01*
X145940476Y-76835771D02*
X146035714Y-76788152D01*
X146035714Y-76788152D02*
X146226190Y-76788152D01*
X146226190Y-76788152D02*
X146321428Y-76835771D01*
X146321428Y-76835771D02*
X146369047Y-76883390D01*
X146369047Y-76883390D02*
X146416666Y-76978628D01*
X146416666Y-76978628D02*
X146416666Y-77264342D01*
X146416666Y-77264342D02*
X146369047Y-77359580D01*
X146369047Y-77359580D02*
X146321428Y-77407200D01*
X146321428Y-77407200D02*
X146226190Y-77454819D01*
X146226190Y-77454819D02*
X146035714Y-77454819D01*
X146035714Y-77454819D02*
X145940476Y-77407200D01*
X147273809Y-76788152D02*
X147273809Y-77454819D01*
X146845238Y-76788152D02*
X146845238Y-77311961D01*
X146845238Y-77311961D02*
X146892857Y-77407200D01*
X146892857Y-77407200D02*
X146988095Y-77454819D01*
X146988095Y-77454819D02*
X147130952Y-77454819D01*
X147130952Y-77454819D02*
X147226190Y-77407200D01*
X147226190Y-77407200D02*
X147273809Y-77359580D01*
X147892857Y-77454819D02*
X147797619Y-77407200D01*
X147797619Y-77407200D02*
X147750000Y-77311961D01*
X147750000Y-77311961D02*
X147750000Y-76454819D01*
X148273810Y-77454819D02*
X148273810Y-76454819D01*
X148369048Y-77073866D02*
X148654762Y-77454819D01*
X148654762Y-76788152D02*
X148273810Y-77169104D01*
X149607143Y-77454819D02*
X149035715Y-77454819D01*
X149321429Y-77454819D02*
X149321429Y-76454819D01*
X149321429Y-76454819D02*
X149226191Y-76597676D01*
X149226191Y-76597676D02*
X149130953Y-76692914D01*
X149130953Y-76692914D02*
X149035715Y-76740533D01*
X136345237Y-77359580D02*
X136297618Y-77407200D01*
X136297618Y-77407200D02*
X136154761Y-77454819D01*
X136154761Y-77454819D02*
X136059523Y-77454819D01*
X136059523Y-77454819D02*
X135916666Y-77407200D01*
X135916666Y-77407200D02*
X135821428Y-77311961D01*
X135821428Y-77311961D02*
X135773809Y-77216723D01*
X135773809Y-77216723D02*
X135726190Y-77026247D01*
X135726190Y-77026247D02*
X135726190Y-76883390D01*
X135726190Y-76883390D02*
X135773809Y-76692914D01*
X135773809Y-76692914D02*
X135821428Y-76597676D01*
X135821428Y-76597676D02*
X135916666Y-76502438D01*
X135916666Y-76502438D02*
X136059523Y-76454819D01*
X136059523Y-76454819D02*
X136154761Y-76454819D01*
X136154761Y-76454819D02*
X136297618Y-76502438D01*
X136297618Y-76502438D02*
X136345237Y-76550057D01*
X136773809Y-77454819D02*
X136773809Y-76454819D01*
X136773809Y-76835771D02*
X136869047Y-76788152D01*
X136869047Y-76788152D02*
X137059523Y-76788152D01*
X137059523Y-76788152D02*
X137154761Y-76835771D01*
X137154761Y-76835771D02*
X137202380Y-76883390D01*
X137202380Y-76883390D02*
X137249999Y-76978628D01*
X137249999Y-76978628D02*
X137249999Y-77264342D01*
X137249999Y-77264342D02*
X137202380Y-77359580D01*
X137202380Y-77359580D02*
X137154761Y-77407200D01*
X137154761Y-77407200D02*
X137059523Y-77454819D01*
X137059523Y-77454819D02*
X136869047Y-77454819D01*
X136869047Y-77454819D02*
X136773809Y-77407200D01*
X138107142Y-77454819D02*
X138107142Y-76931009D01*
X138107142Y-76931009D02*
X138059523Y-76835771D01*
X138059523Y-76835771D02*
X137964285Y-76788152D01*
X137964285Y-76788152D02*
X137773809Y-76788152D01*
X137773809Y-76788152D02*
X137678571Y-76835771D01*
X138107142Y-77407200D02*
X138011904Y-77454819D01*
X138011904Y-77454819D02*
X137773809Y-77454819D01*
X137773809Y-77454819D02*
X137678571Y-77407200D01*
X137678571Y-77407200D02*
X137630952Y-77311961D01*
X137630952Y-77311961D02*
X137630952Y-77216723D01*
X137630952Y-77216723D02*
X137678571Y-77121485D01*
X137678571Y-77121485D02*
X137773809Y-77073866D01*
X137773809Y-77073866D02*
X138011904Y-77073866D01*
X138011904Y-77073866D02*
X138107142Y-77026247D01*
X138535714Y-77407200D02*
X138630952Y-77454819D01*
X138630952Y-77454819D02*
X138821428Y-77454819D01*
X138821428Y-77454819D02*
X138916666Y-77407200D01*
X138916666Y-77407200D02*
X138964285Y-77311961D01*
X138964285Y-77311961D02*
X138964285Y-77264342D01*
X138964285Y-77264342D02*
X138916666Y-77169104D01*
X138916666Y-77169104D02*
X138821428Y-77121485D01*
X138821428Y-77121485D02*
X138678571Y-77121485D01*
X138678571Y-77121485D02*
X138583333Y-77073866D01*
X138583333Y-77073866D02*
X138535714Y-76978628D01*
X138535714Y-76978628D02*
X138535714Y-76931009D01*
X138535714Y-76931009D02*
X138583333Y-76835771D01*
X138583333Y-76835771D02*
X138678571Y-76788152D01*
X138678571Y-76788152D02*
X138821428Y-76788152D01*
X138821428Y-76788152D02*
X138916666Y-76835771D01*
X139773809Y-77407200D02*
X139678571Y-77454819D01*
X139678571Y-77454819D02*
X139488095Y-77454819D01*
X139488095Y-77454819D02*
X139392857Y-77407200D01*
X139392857Y-77407200D02*
X139345238Y-77311961D01*
X139345238Y-77311961D02*
X139345238Y-76931009D01*
X139345238Y-76931009D02*
X139392857Y-76835771D01*
X139392857Y-76835771D02*
X139488095Y-76788152D01*
X139488095Y-76788152D02*
X139678571Y-76788152D01*
X139678571Y-76788152D02*
X139773809Y-76835771D01*
X139773809Y-76835771D02*
X139821428Y-76931009D01*
X139821428Y-76931009D02*
X139821428Y-77026247D01*
X139821428Y-77026247D02*
X139345238Y-77121485D01*
X140773809Y-77454819D02*
X140202381Y-77454819D01*
X140488095Y-77454819D02*
X140488095Y-76454819D01*
X140488095Y-76454819D02*
X140392857Y-76597676D01*
X140392857Y-76597676D02*
X140297619Y-76692914D01*
X140297619Y-76692914D02*
X140202381Y-76740533D01*
D11*
X112857143Y-84457419D02*
X113428571Y-84457419D01*
X113142857Y-85457419D02*
X113142857Y-84457419D01*
X113952381Y-84457419D02*
X114142857Y-84457419D01*
X114142857Y-84457419D02*
X114238095Y-84505038D01*
X114238095Y-84505038D02*
X114333333Y-84600276D01*
X114333333Y-84600276D02*
X114380952Y-84790752D01*
X114380952Y-84790752D02*
X114380952Y-85124085D01*
X114380952Y-85124085D02*
X114333333Y-85314561D01*
X114333333Y-85314561D02*
X114238095Y-85409800D01*
X114238095Y-85409800D02*
X114142857Y-85457419D01*
X114142857Y-85457419D02*
X113952381Y-85457419D01*
X113952381Y-85457419D02*
X113857143Y-85409800D01*
X113857143Y-85409800D02*
X113761905Y-85314561D01*
X113761905Y-85314561D02*
X113714286Y-85124085D01*
X113714286Y-85124085D02*
X113714286Y-84790752D01*
X113714286Y-84790752D02*
X113761905Y-84600276D01*
X113761905Y-84600276D02*
X113857143Y-84505038D01*
X113857143Y-84505038D02*
X113952381Y-84457419D01*
X114809524Y-84457419D02*
X114809524Y-85266942D01*
X114809524Y-85266942D02*
X114857143Y-85362180D01*
X114857143Y-85362180D02*
X114904762Y-85409800D01*
X114904762Y-85409800D02*
X115000000Y-85457419D01*
X115000000Y-85457419D02*
X115190476Y-85457419D01*
X115190476Y-85457419D02*
X115285714Y-85409800D01*
X115285714Y-85409800D02*
X115333333Y-85362180D01*
X115333333Y-85362180D02*
X115380952Y-85266942D01*
X115380952Y-85266942D02*
X115380952Y-84457419D01*
X116428571Y-85362180D02*
X116380952Y-85409800D01*
X116380952Y-85409800D02*
X116238095Y-85457419D01*
X116238095Y-85457419D02*
X116142857Y-85457419D01*
X116142857Y-85457419D02*
X116000000Y-85409800D01*
X116000000Y-85409800D02*
X115904762Y-85314561D01*
X115904762Y-85314561D02*
X115857143Y-85219323D01*
X115857143Y-85219323D02*
X115809524Y-85028847D01*
X115809524Y-85028847D02*
X115809524Y-84885990D01*
X115809524Y-84885990D02*
X115857143Y-84695514D01*
X115857143Y-84695514D02*
X115904762Y-84600276D01*
X115904762Y-84600276D02*
X116000000Y-84505038D01*
X116000000Y-84505038D02*
X116142857Y-84457419D01*
X116142857Y-84457419D02*
X116238095Y-84457419D01*
X116238095Y-84457419D02*
X116380952Y-84505038D01*
X116380952Y-84505038D02*
X116428571Y-84552657D01*
X116857143Y-85457419D02*
X116857143Y-84457419D01*
X116857143Y-84933609D02*
X117428571Y-84933609D01*
X117428571Y-85457419D02*
X117428571Y-84457419D01*
X117666667Y-85552657D02*
X118428571Y-85552657D01*
X118666667Y-85457419D02*
X118666667Y-84457419D01*
X118666667Y-84457419D02*
X119047619Y-84457419D01*
X119047619Y-84457419D02*
X119142857Y-84505038D01*
X119142857Y-84505038D02*
X119190476Y-84552657D01*
X119190476Y-84552657D02*
X119238095Y-84647895D01*
X119238095Y-84647895D02*
X119238095Y-84790752D01*
X119238095Y-84790752D02*
X119190476Y-84885990D01*
X119190476Y-84885990D02*
X119142857Y-84933609D01*
X119142857Y-84933609D02*
X119047619Y-84981228D01*
X119047619Y-84981228D02*
X118666667Y-84981228D01*
X119619048Y-85171704D02*
X120095238Y-85171704D01*
X119523810Y-85457419D02*
X119857143Y-84457419D01*
X119857143Y-84457419D02*
X120190476Y-85457419D01*
X120523810Y-85457419D02*
X120523810Y-84457419D01*
X120523810Y-84457419D02*
X120761905Y-84457419D01*
X120761905Y-84457419D02*
X120904762Y-84505038D01*
X120904762Y-84505038D02*
X121000000Y-84600276D01*
X121000000Y-84600276D02*
X121047619Y-84695514D01*
X121047619Y-84695514D02*
X121095238Y-84885990D01*
X121095238Y-84885990D02*
X121095238Y-85028847D01*
X121095238Y-85028847D02*
X121047619Y-85219323D01*
X121047619Y-85219323D02*
X121000000Y-85314561D01*
X121000000Y-85314561D02*
X120904762Y-85409800D01*
X120904762Y-85409800D02*
X120761905Y-85457419D01*
X120761905Y-85457419D02*
X120523810Y-85457419D01*
X122047619Y-85457419D02*
X121476191Y-85457419D01*
X121761905Y-85457419D02*
X121761905Y-84457419D01*
X121761905Y-84457419D02*
X121666667Y-84600276D01*
X121666667Y-84600276D02*
X121571429Y-84695514D01*
X121571429Y-84695514D02*
X121476191Y-84743133D01*
D12*
%TO.C,Rpd1*%
X131930400Y-100257165D02*
X131930400Y-100726300D01*
X128069600Y-100436740D02*
X128069600Y-100726300D01*
X128069600Y-98160900D02*
X128069600Y-98450460D01*
X131930400Y-98160900D02*
X131930400Y-98630035D01*
X131930400Y-100726300D02*
X128069600Y-100726300D01*
X131930400Y-98160900D02*
X128069600Y-98160900D01*
%TO.C,R3*%
X128069610Y-87186435D02*
X128069610Y-86717300D01*
X131930410Y-87006860D02*
X131930410Y-86717300D01*
X131930410Y-89282700D02*
X131930410Y-88993140D01*
X128069610Y-89282700D02*
X128069610Y-88813565D01*
X128069610Y-86717300D02*
X131930410Y-86717300D01*
X128069610Y-89282700D02*
X131930410Y-89282700D01*
D13*
%TO.C,U1*%
X104290000Y-100535000D02*
G75*
G02*
X104090000Y-100535000I-100000J0D01*
G01*
X104090000Y-100535000D02*
G75*
G02*
X104290000Y-100535000I100000J0D01*
G01*
D14*
X103205000Y-98675000D02*
X103205000Y-92325000D01*
X112795000Y-98675000D02*
X112795000Y-92325000D01*
D12*
%TO.C,Rosc1*%
X128069605Y-96782700D02*
X131930405Y-96782700D01*
X128069605Y-94217300D02*
X131930405Y-94217300D01*
X128069605Y-96782700D02*
X128069605Y-96313565D01*
X131930405Y-96782700D02*
X131930405Y-96493140D01*
X131930405Y-94506860D02*
X131930405Y-94217300D01*
X128069605Y-94686435D02*
X128069605Y-94217300D01*
%TO.C,RLS1*%
X139930395Y-98217300D02*
X136069595Y-98217300D01*
X139930395Y-100782700D02*
X136069595Y-100782700D01*
X139930395Y-98217300D02*
X139930395Y-98686435D01*
X136069595Y-98217300D02*
X136069595Y-98506860D01*
X136069595Y-100493140D02*
X136069595Y-100782700D01*
X139930395Y-100313565D02*
X139930395Y-100782700D01*
%TO.C,Rgate1*%
X131930400Y-90217300D02*
X128069600Y-90217300D01*
X131930400Y-92782700D02*
X128069600Y-92782700D01*
X131930400Y-90217300D02*
X131930400Y-90686435D01*
X128069600Y-90217300D02*
X128069600Y-90506860D01*
X128069600Y-92493140D02*
X128069600Y-92782700D01*
X131930400Y-92313565D02*
X131930400Y-92782700D01*
%TO.C,Rg1*%
X123430405Y-94217300D02*
X119569605Y-94217300D01*
X123430405Y-96782700D02*
X119569605Y-96782700D01*
X123430405Y-94217300D02*
X123430405Y-94686435D01*
X119569605Y-94217300D02*
X119569605Y-94506860D01*
X119569605Y-96493140D02*
X119569605Y-96782700D01*
X123430405Y-96313565D02*
X123430405Y-96782700D01*
%TO.C,Rf1*%
X123430405Y-98217300D02*
X119569605Y-98217300D01*
X123430405Y-100782700D02*
X119569605Y-100782700D01*
X123430405Y-98217300D02*
X123430405Y-98686435D01*
X119569605Y-98217300D02*
X119569605Y-98506860D01*
X119569605Y-100493140D02*
X119569605Y-100782700D01*
X123430405Y-100313565D02*
X123430405Y-100782700D01*
%TO.C,R4*%
X123430400Y-90217300D02*
X119569600Y-90217300D01*
X123430400Y-92782700D02*
X119569600Y-92782700D01*
X123430400Y-90217300D02*
X123430400Y-90686435D01*
X119569600Y-90217300D02*
X119569600Y-90506860D01*
X119569600Y-92493140D02*
X119569600Y-92782700D01*
X123430400Y-92313565D02*
X123430400Y-92782700D01*
%TO.C,Q1*%
X137824201Y-69000000D02*
G75*
G02*
X137570201Y-69000000I-127000J0D01*
G01*
X137570201Y-69000000D02*
G75*
G02*
X137824201Y-69000000I127000J0D01*
G01*
X139602201Y-67818900D02*
X141907509Y-67818900D01*
X139475201Y-71451100D02*
X150244801Y-71451100D01*
X150244801Y-71451100D02*
X150244801Y-66548900D01*
X150244801Y-66548900D02*
X139475201Y-66548900D01*
X139475201Y-66548900D02*
X139475201Y-71451100D01*
X142532493Y-67818900D02*
X144547508Y-67818900D01*
X145172493Y-67818900D02*
X147187508Y-67818900D01*
X147812493Y-67818900D02*
X150117801Y-67818900D01*
D14*
%TO.C,LS1*%
X139920000Y-63715000D02*
X139920000Y-62445000D01*
X150080000Y-63715000D02*
X150080000Y-62445000D01*
X139285000Y-63080000D02*
X140555000Y-63080000D01*
X151000000Y-58000000D02*
G75*
G02*
X139000000Y-58000000I-6000000J0D01*
G01*
X139000000Y-58000000D02*
G75*
G02*
X151000000Y-58000000I6000000J0D01*
G01*
%TO.C,J1*%
X103230000Y-86230000D02*
X108310000Y-86230000D01*
X108310000Y-86230000D02*
X108310000Y-88770000D01*
X108310000Y-88770000D02*
X103230000Y-88770000D01*
X103230000Y-88770000D02*
X103230000Y-86230000D01*
D13*
X102770000Y-87500000D02*
G75*
G02*
X102570000Y-87500000I-100000J0D01*
G01*
X102570000Y-87500000D02*
G75*
G02*
X102770000Y-87500000I100000J0D01*
G01*
D12*
%TO.C,Cref1*%
X142322400Y-86500000D02*
X143592400Y-86500000D01*
X142957400Y-85865000D02*
X142957400Y-87135000D01*
X150780600Y-86500000D02*
G75*
G02*
X143719400Y-86500000I-3530600J0D01*
G01*
X143719400Y-86500000D02*
G75*
G02*
X150780600Y-86500000I3530600J0D01*
G01*
%TO.C,Cdec1*%
X132822400Y-86000000D02*
X134092400Y-86000000D01*
X133457400Y-85365000D02*
X133457400Y-86635000D01*
X141280600Y-86000000D02*
G75*
G02*
X134219400Y-86000000I-3530600J0D01*
G01*
X134219400Y-86000000D02*
G75*
G02*
X141280600Y-86000000I3530600J0D01*
G01*
%TO.C,Cbulk1*%
X152177600Y-77000000D02*
X150907600Y-77000000D01*
X151542600Y-77635000D02*
X151542600Y-76365000D01*
X150780600Y-77000000D02*
G75*
G02*
X143719400Y-77000000I-3530600J0D01*
G01*
X143719400Y-77000000D02*
G75*
G02*
X150780600Y-77000000I3530600J0D01*
G01*
%TO.C,Cbase1*%
X133322400Y-77000000D02*
X134592400Y-77000000D01*
X133957400Y-76365000D02*
X133957400Y-77635000D01*
X141780600Y-77000000D02*
G75*
G02*
X134719400Y-77000000I-3530600J0D01*
G01*
X134719400Y-77000000D02*
G75*
G02*
X141780600Y-77000000I3530600J0D01*
G01*
%TD*%
M02*
